<?xml version="1.0" standalone="no"?>
<!DOCTYPE svg PUBLIC "-//W3C//DTD SVG 20010904//EN"
 "http://www.w3.org/TR/2001/REC-SVG-20010904/DTD/svg10.dtd">
<svg version="1.0" xmlns="http://www.w3.org/2000/svg"
 width="300.000000pt" height="83.000000pt" viewBox="0 0 300.000000 83.000000"
 preserveAspectRatio="xMidYMid meet">
<metadata>
Created by potrace 1.10, written by Peter Selinger 2001-2011
</metadata>
<g transform="translate(0.000000,83.000000) scale(0.100000,-0.100000)"
fill="#000000" stroke="none">
<path d="M2415 665 l-200 -63 0 -213 0 -213 180 -58 c99 -31 192 -60 208 -63
l27 -7 0 341 c0 188 -3 341 -7 340 -5 0 -98 -29 -208 -64z m156 -114 c23 -19
24 -24 24 -159 0 -189 6 -182 -174 -182 -189 0 -181 -8 -181 176 0 191 -7 184
174 184 117 0 137 -2 157 -19z"/>
<path d="M2320 418 l0 -62 60 59 c33 33 60 61 60 62 0 2 -27 3 -60 3 l-60 0 0
-62z"/>
<path d="M2445 360 l-59 -60 62 0 62 0 0 60 c0 33 -1 60 -3 60 -1 0 -29 -27
-62 -60z"/>
<path d="M153 560 c-36 -15 -43 -43 -43 -178 0 -174 -2 -172 179 -172 127 0
133 1 156 25 24 23 25 29 25 153 0 179 3 176 -167 179 -70 2 -138 -2 -150 -7z
m112 -140 c-33 -33 -63 -60 -67 -60 -4 0 -8 27 -8 60 l0 60 67 0 67 0 -59 -60z
m115 -65 l0 -65 -60 0 c-33 0 -60 3 -60 7 0 7 111 123 117 123 2 0 3 -29 3
-65z"/>
<path d="M952 560 c-35 -15 -44 -54 -40 -188 4 -165 1 -162 184 -162 180 0
174 -6 174 178 0 181 5 176 -169 179 -69 2 -136 -2 -149 -7z m168 -83 c0 -1
-27 -29 -60 -62 l-60 -59 0 62 0 62 60 0 c33 0 60 -1 60 -3z m66 -173 c-4 -10
-24 -14 -68 -14 l-62 0 64 65 65 66 3 -52 c2 -28 1 -58 -2 -65z"/>
<path d="M1320 564 c0 -3 32 -50 70 -104 l70 -99 0 -75 0 -76 40 0 40 0 0 78
0 78 65 94 c36 52 65 98 65 102 0 4 -20 8 -44 8 -43 0 -46 -2 -87 -60 l-42
-60 -41 60 c-40 59 -42 60 -88 60 -27 0 -48 -3 -48 -6z"/>
<path d="M1815 403 c-42 -93 -80 -174 -82 -180 -4 -9 8 -13 39 -13 l45 0 58
125 c32 69 61 125 64 125 4 0 34 -56 69 -125 l62 -125 44 0 45 0 -86 180 -87
180 -46 0 -47 0 -78 -167z"/>
<path d="M510 250 l0 -40 180 0 180 0 0 40 0 40 -180 0 -180 0 0 -40z"/>
</g>
</svg>
